<svg version="1.1" xmlns="http://www.w3.org/2000/svg" width="1024" height="1024">

<path d="M0 0 C1.70946986 -0.00551503 1.70946986 -0.00551503 3.45347446 -0.01114148 C7.26309058 -0.02213334 11.07267939 -0.0260145 14.88230896 -0.02983093 C17.61773916 -0.03557124 20.35316533 -0.04273378 23.08859253 -0.04974365 C31.28858531 -0.06944572 39.48857921 -0.07956518 47.68858972 -0.08847144 C51.55736727 -0.09286362 55.42614348 -0.09822791 59.29491997 -0.10346031 C72.1670392 -0.12046445 85.03915762 -0.13495739 97.91128635 -0.14220905 C101.24667932 -0.14411869 104.58207227 -0.14603907 107.91746521 -0.147995 C109.16083541 -0.14872061 109.16083541 -0.14872061 110.4293242 -0.14946087 C123.8497003 -0.15775687 137.26998716 -0.18309014 150.69032431 -0.21557567 C164.49149323 -0.24870884 178.29261688 -0.26666335 192.09382576 -0.26985329 C199.83351717 -0.27201234 207.57307832 -0.2806721 215.31273079 -0.30631447 C221.90524533 -0.32810699 228.49759793 -0.33603004 235.0901444 -0.32634769 C238.44812655 -0.32182779 241.80550645 -0.3257713 245.16348648 -0.34310913 C271.05346665 -0.46924865 271.05346665 -0.46924865 283.50901794 4.14717102 C284.63284048 4.55172783 284.63284048 4.55172783 285.77936649 4.96445751 C299.1618317 10.25320078 307.12333659 19.10998067 313.13401794 31.75263977 C318.31979399 44.55502438 317.55235357 57.36281719 312.29026794 70.09638977 C306.53385198 81.56125157 297.26167862 89.85701424 285.26683044 94.36592102 C275.45951481 97.53687758 266.38087273 98.2956868 256.14970398 98.28520203 C255.02427492 98.28802331 253.89884586 98.29084459 252.73931289 98.29375136 C248.97797055 98.30206703 245.21665777 98.30343301 241.45530701 98.30488586 C238.75441793 98.30955628 236.05353276 98.3146341 233.35264587 98.32028198 C227.54039419 98.33178177 221.72814537 98.34003961 215.91588593 98.34640121 C206.72097885 98.35675547 197.52610756 98.37732618 188.33122253 98.39952087 C185.18130886 98.40699972 182.03139504 98.41441358 178.88148117 98.42180824 C177.70081445 98.42458409 177.70081445 98.42458409 176.49629588 98.42741602 C167.54578744 98.44832347 158.59527506 98.46716114 149.64476013 98.48506165 C148.41815322 98.48751892 148.41815322 98.48751892 147.16676638 98.49002583 C133.91900845 98.51630377 120.67124776 98.5349532 107.42347482 98.55165355 C93.80422153 98.56909875 80.18502263 98.59796833 66.56581283 98.63654292 C58.17547187 98.65988469 49.78521961 98.67393223 41.39484593 98.67587055 C35.64054356 98.67798646 29.88632929 98.69097004 24.13206652 98.71234988 C20.81709458 98.72432744 17.50244454 98.7299205 14.18743134 98.72563744 C10.58352006 98.72172586 6.98012012 98.7362525 3.37626648 98.75517273 C2.3427758 98.74964303 1.30928513 98.74411334 0.24447656 98.73841608 C-13.13768348 98.85908015 -26.80263346 102.56975529 -36.86598206 111.77217102 C-45.44963254 121.03677917 -47.97737706 131.64130487 -47.76832581 143.83467102 C-47.39162081 152.48576685 -43.48415098 159.96796138 -37.49098206 166.14717102 C-30.07322897 172.21624173 -21.26479187 176.26913056 -11.58643818 176.27466297 C-10.59415693 176.27767062 -9.60187567 176.28067827 -8.57952529 176.28377706 C-7.49152749 176.28202669 -6.40352969 176.28027631 -5.28256226 176.2784729 C-4.12480417 176.28058861 -2.96704609 176.28270433 -1.77420443 176.28488415 C1.44075481 176.28984488 4.65568059 176.29038099 7.8706423 176.28914344 C11.33870808 176.28892817 14.80676462 176.29450611 18.27482605 176.29954529 C24.28956279 176.30766114 30.30429528 176.31260351 36.31903648 176.31583595 C45.84904122 176.32134277 55.37901035 176.33825455 64.90899658 176.35717773 C68.17384237 176.36353514 71.43868825 176.36984363 74.70353413 176.3761549 C75.51961983 176.37773866 76.33570554 176.37932242 77.17652112 176.38095418 C86.47004939 176.39889668 95.7635802 176.41511579 105.05711365 176.43013 C105.90660032 176.43150588 106.75608699 176.43288175 107.63131569 176.43429931 C121.34583948 176.45615019 135.06035406 176.46696567 148.77489217 176.47450075 C162.88564533 176.48261008 176.99632031 176.50602917 191.10702878 176.54245442 C199.79036822 176.56433262 208.47354622 176.57418951 217.15691177 176.56795409 C223.13142282 176.56474642 229.10579754 176.57632406 235.08026638 176.5988485 C238.51233671 176.61134924 241.94385356 176.61565049 245.37597084 176.60643196 C277.40439411 176.52918215 307.79978491 182.05836552 337.50901794 194.14717102 C338.25457947 194.44848938 339.00014099 194.74980774 339.76829529 195.06025696 C371.33259014 207.99251737 399.18078338 228.55178984 420.50901794 255.14717102 C421.15741638 255.91674133 421.80581482 256.68631165 422.47386169 257.47920227 C458.32324684 300.51312676 471.83510591 358.61004138 467.04808044 413.58857727 C466.4586717 418.82833696 465.56295446 423.98250024 464.50901794 429.14717102 C464.21897888 430.60558411 464.21897888 430.60558411 463.92308044 432.09346008 C456.5587279 468.08559668 441.12012308 502.57402138 416.50901794 530.14717102 C416.08024353 530.62944153 415.65146912 531.11171204 415.20970154 531.6085968 C412.02911369 535.17279581 408.78491599 538.670415 405.50901794 542.14717102 C404.78069763 542.92963196 404.05237732 543.7120929 403.30198669 544.51826477 C396.94531677 551.13439061 389.82188192 556.64430489 382.50901794 562.14717102 C381.9455365 562.5767511 381.38205505 563.00633118 380.80149841 563.44892883 C371.91029502 570.19720416 362.56056009 575.77355583 352.69798279 580.98750305 C350.68419535 582.05436568 348.68436193 583.14382279 346.68479919 584.23701477 C318.49921987 599.31637361 286.98497213 606.51096934 255.17797852 606.38768005 C253.47798868 606.38855424 251.77799912 606.39030913 250.07801098 606.39285839 C245.44862229 606.39729402 240.81932756 606.38938086 236.18995082 606.37930226 C231.18198791 606.37061498 226.17402973 606.37359164 221.1660614 606.37510681 C212.50333985 606.37615234 203.84064858 606.36991056 195.17793465 606.35863113 C182.65331516 606.34233393 170.12871021 606.33716382 157.60408127 606.33465515 C137.28063716 606.33028466 116.95720917 606.31699311 96.6337738 606.29804993 C76.89874858 606.27967439 57.16372774 606.26552608 37.42869568 606.2570343 C35.60208517 606.25624613 35.60208517 606.25624613 33.73857344 606.25544204 C27.62914784 606.25283185 21.51972221 606.25030446 15.41029656 606.24781823 C-35.22347729 606.22710584 -85.85722132 606.19024694 -136.49098206 606.14717102 C-136.49098206 573.14717102 -136.49098206 540.14717102 -136.49098206 506.14717102 C-124.31659241 506.1325885 -112.14220276 506.11800598 -99.59889221 506.10298157 C-60.60801655 506.05418355 -21.61717688 505.99076317 17.37366148 505.91818474 C23.43407958 505.9069171 29.4944979 505.89577857 35.55491638 505.88471985 C36.76139378 505.88251617 37.96787117 505.88031248 39.21090849 505.87804202 C58.72441826 505.84270733 78.23792799 505.8178216 97.75145786 505.796824 C117.78669016 505.77503143 137.8218811 505.74194825 157.85707819 505.69846946 C170.21145203 505.67201226 182.56577435 505.65427323 194.92017509 505.64782498 C203.40173608 505.64255292 211.88323234 505.62627515 220.3647586 505.60150536 C225.2519631 505.58755251 230.1390519 505.57829617 235.02627754 505.58216286 C239.51274338 505.58560459 243.99896326 505.57502944 248.48537882 505.55393551 C250.0967163 505.54872132 251.7080797 505.54837515 253.31941657 505.55377539 C267.77813028 505.59724463 282.56666707 504.39235081 296.13401794 499.02217102 C296.91559265 498.72069153 297.69716736 498.41921204 298.50242615 498.1085968 C327.24383208 486.63766779 350.68244893 464.64790531 362.97776794 436.10810852 C365.84112838 428.99647084 367.75674301 421.59795991 369.50901794 414.14717102 C369.75651794 413.11076477 370.00401794 412.07435852 370.25901794 411.00654602 C375.82334285 383.33948608 368.34542345 353.69710546 353.50901794 330.14717102 C350.17092847 325.19791931 346.4715541 320.60702364 342.50901794 316.14717102 C341.70851013 315.24611633 340.90800232 314.34506165 340.08323669 313.41670227 C325.31701074 297.8287878 305.4549874 286.68448965 284.50901794 282.14717102 C283.73396377 281.97478157 282.95890959 281.80239212 282.16036892 281.62477875 C269.97443036 279.34612744 257.57665017 279.8543784 245.22996521 279.86006165 C242.56426363 279.85403057 239.89857533 279.84720582 237.23287964 279.83935547 C231.50967793 279.82396795 225.78650068 279.81550532 220.06328011 279.81164551 C211.76473215 279.80586458 203.46624931 279.787223 195.16773032 279.76520497 C181.66895474 279.72955288 168.17017543 279.70121562 154.67137146 279.6789093 C153.46191231 279.67690682 153.46191231 279.67690682 152.22801965 279.67486387 C146.50918605 279.66544265 140.79035205 279.65628147 135.07151794 279.64717102 C128.5543464 279.63678121 122.0371751 279.62625978 115.52000427 279.61543274 C114.71742176 279.614102 113.91483925 279.61277125 113.08793605 279.61140019 C99.64703208 279.58887436 86.20615573 279.55863343 72.76528019 279.52304029 C64.50132594 279.50152511 56.23741468 279.486797 47.97343402 279.48120153 C42.29621943 279.47691418 36.61904572 279.46557295 30.94185389 279.44897759 C27.68035907 279.4396889 24.41895395 279.43452795 21.157444 279.43604088 C-18.42304789 279.44915432 -18.42304789 279.44915432 -36.55348206 274.52217102 C-37.54114563 274.26274719 -38.5288092 274.00332336 -39.54640198 273.73603821 C-76.55352775 263.6655085 -109.81721429 244.02073811 -129.49098206 210.14717102 C-135.77877503 198.6712662 -140.5198971 186.88803982 -143.49098206 174.14717102 C-143.73437317 173.13880188 -143.73437317 173.13880188 -143.98268127 172.11006165 C-148.60572702 152.16751139 -148.28840564 130.02289216 -143.49098206 110.14717102 C-143.33001038 109.45687805 -143.1690387 108.76658508 -143.00318909 108.05537415 C-137.80117318 86.44776918 -126.93889594 67.87016226 -112.49098206 51.14717102 C-111.63504456 50.15588196 -110.77910706 49.1645929 -109.89723206 48.14326477 C-82.70270474 17.26326723 -40.93290512 -0.00714677 0 0 Z " fill="#000000" transform="translate(366.49098205566406,285.8528289794922)" data-index="1" style="visibility: visible; opacity: 1; fill: rgb(0, 0, 0);"></path>
<path d="M0 0 C52.34965569 -0.06621424 104.69927169 -0.12157675 157.04895732 -0.15319599 C163.23812331 -0.15694783 169.42728922 -0.16083082 175.61645508 -0.16479492 C176.84853645 -0.16558185 178.08061783 -0.16636878 179.350035 -0.16717956 C199.26434541 -0.18021116 219.17862967 -0.20385256 239.0929246 -0.23145839 C259.5473885 -0.25957521 280.00183876 -0.2761895 300.45632118 -0.28226548 C313.06405761 -0.28636893 325.67172012 -0.29929977 338.27943378 -0.3237494 C346.94088458 -0.33968418 355.60229751 -0.34438295 364.26376189 -0.34050413 C369.25084304 -0.33859456 374.23779559 -0.34139076 379.22485352 -0.35761642 C434.12231746 -0.52713141 486.12468624 9.64165891 530 45 C530.9178125 45.72703125 531.835625 46.4540625 532.78125 47.203125 C542.236368 54.79909058 551.22417151 62.67552642 559 72 C560.24716797 73.41539062 560.24716797 73.41539062 561.51953125 74.859375 C597.97154597 116.41713082 611.56386095 168.67829183 609 223 C605.44482104 267.5177775 586.10881979 309.57637728 557 343 C553.1936699 341.39448635 550.41787919 338.83899612 547.375 336.125 C524.97130684 316.73600925 496.83464063 302.67127179 469 293 C472.39536574 288.88982042 475.89219232 285.11884644 479.75 281.4375 C500.54000486 260.74114381 511.13343359 232.10884371 511.4375 203.0625 C511.26231025 176.12760431 501.19067419 152.23716643 482.71875 132.625 C461.5847989 112.21980583 432.02310339 99.92425481 402.61249542 99.8613348 C401.56029947 99.85707147 401.56029947 99.85707147 400.48684704 99.85272202 C398.148812 99.84443523 395.81082688 99.84311158 393.47277832 99.84178162 C391.77470455 99.83721216 390.0766319 99.83221158 388.37856054 99.82681805 C383.72199252 99.81327123 379.06543178 99.80582862 374.40884924 99.79939139 C369.38371271 99.79137223 364.35859124 99.77767968 359.33346558 99.76467896 C350.63025892 99.7429377 341.92705073 99.72478462 333.22383118 99.70907402 C320.64046202 99.68635398 308.05710956 99.65821411 295.47375458 99.62875474 C275.05770575 99.581105 254.64165008 99.53783373 234.22558594 99.49731445 C214.39420032 99.45794621 194.56282077 99.41651679 174.73144531 99.37231445 C173.50887891 99.36959018 172.28631251 99.36686591 171.02669865 99.36405908 C164.89339443 99.35037939 158.76009031 99.33665916 152.62678623 99.32291877 C101.75120274 99.20899512 50.87560705 99.10298304 0 99 C0 66.33 0 33.66 0 0 Z " fill="#000000" transform="translate(230,130)" data-index="2" style="visibility: visible; opacity: 1; fill: rgb(0, 0, 0);"></path>
<path d="M0 0 C51.55178605 -0.0661329 103.10353211 -0.12152675 154.65534844 -0.15319599 C160.74109826 -0.15694812 166.82684798 -0.16083109 172.91259766 -0.16479492 C174.12416415 -0.16558185 175.33573064 -0.16636878 176.58401127 -0.16717956 C196.20317741 -0.18023454 215.82231719 -0.20388891 235.44146769 -0.23145839 C255.57155523 -0.25951 275.70162897 -0.27617575 295.83173525 -0.28226548 C308.25371743 -0.28638242 320.67562508 -0.29938695 333.09758432 -0.3237494 C341.61503832 -0.33960355 350.13245378 -0.34440107 358.64992146 -0.34050413 C363.5645081 -0.3385821 368.47896449 -0.34153485 373.39352798 -0.35761642 C377.89558255 -0.37224047 382.39741955 -0.37293608 386.89948423 -0.36269668 C388.52549696 -0.36143159 390.1515234 -0.36521586 391.77750926 -0.37464955 C407.70259499 -0.46164841 419.2744732 2.52415534 431.1875 13.5 C439.47277235 22.13755952 444.80739797 33.61911338 445.3125 45.625 C444.92164727 60.61535177 439.81304645 73.98943169 429.40625 84.8125 C418.98258066 94.28856304 404.92519686 98.1274151 391.04599953 98.12304783 C390.36710373 98.12420167 389.68820794 98.12535552 388.98873955 98.12654433 C386.71541943 98.12918976 384.44217024 98.12470595 382.16885376 98.12025452 C380.52200471 98.12069064 378.87515574 98.12156631 377.22830713 98.12284368 C372.70402798 98.12508051 368.17977249 98.12107842 363.65549636 98.11606562 C358.77621063 98.11174969 353.89692626 98.11320836 349.01763916 98.1139679 C340.56430368 98.1144924 332.11097591 98.11135322 323.65764236 98.10573006 C311.43552014 98.09760519 299.21340165 98.09499882 286.99127702 98.09374207 C267.16198856 98.0915531 247.3327042 98.08489722 227.50341797 98.07543945 C208.24039734 98.06626132 188.97737784 98.05918244 169.71435547 98.05493164 C167.93348362 98.05453756 167.93348362 98.05453756 166.11663456 98.05413551 C160.16059802 98.05283048 154.20456146 98.05156677 148.2485249 98.05032361 C98.83234628 98.03995584 49.41617527 98.02152013 0 98 C0 65.66 0 33.32 0 0 Z " fill="#000000" transform="translate(230,634)" data-index="3" style="visibility: visible; opacity: 1; fill: rgb(0, 0, 0);"></path>
</svg>